<svg width="100" height="92" viewBox="0 0 100 92" fill="none" xmlns="http://www.w3.org/2000/svg">
<path d="M85.3944 4.01569C81.3457 1.65136 76.7018 0.291626 71.7474 0.291626C63.0059 0.291626 55.1776 4.51407 50.0085 11.1352C44.815 4.51407 36.994 0.291626 28.2407 0.291626C23.2982 0.291626 18.6628 1.65136 14.605 4.01569C5.89879 9.12657 0 18.9529 0 30.2454C0 33.4783 0.496298 36.5788 1.3952 39.4794C6.2429 62.5774 50.0085 91.7084 50.0085 91.7084C50.0085 91.7084 93.7452 62.578 98.5997 39.4794C99.4986 36.5788 100 33.4741 100 30.2454C100 18.9571 94.1012 9.13379 85.3944 4.01569Z" fill="#CE5353"/>
</svg>
