<svg width="85" height="90" viewBox="0 0 85 90" fill="none" xmlns="http://www.w3.org/2000/svg">
<path d="M78.7494 26.5804C77.6355 25.1719 75.6517 24.9867 74.3215 26.1613L65.6038 33.9151L61.5947 23.398C61.4521 23.0032 61.2357 22.6718 60.9872 22.3794C60.1679 20.4495 58.7456 18.7924 56.7848 17.8324C55.9333 17.423 55.0542 17.2037 54.175 17.0964C53.9817 16.9892 53.8068 16.8479 53.5859 16.7748L38.2447 12.2473C37.384 11.9987 36.5187 12.1595 35.8098 12.5981C34.9675 12.9003 34.2449 13.5485 33.8997 14.4891L28.1231 30.2161C27.4972 31.9267 28.298 33.8566 29.9182 34.5292C31.5292 35.192 33.3565 34.3391 33.9871 32.6236L38.8661 19.3432L45.8531 21.3998C45.6828 21.6922 45.4987 21.9651 45.3606 22.277L36.4036 42.8337C36.2747 43.1359 36.2057 43.4429 36.1136 43.7548L25.228 63.0785L7.01007 69.5311C4.94801 71.1637 4.51075 74.2389 6.03427 76.4223C7.56701 78.6105 10.4806 79.0735 12.538 77.4603L31.1794 70.6617C31.7502 70.2231 32.1644 69.648 32.4774 69.0291C32.7121 68.7659 32.9791 68.5563 33.1586 68.2298L39.6486 56.7087L51.1694 67.104L38.8431 81.8124C37.1446 83.8398 37.3149 86.9638 39.2389 88.7572C41.1583 90.5653 44.0995 90.3753 45.8071 88.3381L61.1897 69.9892C61.6684 69.4238 61.9538 68.7708 62.1471 68.0885C62.2621 67.7181 62.2621 67.3331 62.2898 66.9481C62.2898 66.7531 62.3588 66.5777 62.345 66.3974C62.3036 65.0523 61.7881 63.7461 60.7478 62.8153L50.1476 53.2436C50.9116 52.4736 51.5606 51.5574 52.0301 50.4803L58.8975 34.7338L61.0976 40.9379C61.1897 41.4886 61.3646 42.0296 61.7328 42.4828C62.0642 42.9019 62.4877 43.1797 62.9388 43.3747C62.9848 43.399 63.04 43.4039 63.0953 43.4185C63.3806 43.5258 63.6706 43.6281 63.9698 43.6427C64.3242 43.6768 64.6832 43.6281 65.0468 43.5209C65.056 43.516 65.0607 43.516 65.0607 43.516C65.1573 43.4916 65.254 43.5111 65.3506 43.4673C65.8615 43.2626 66.2528 42.9166 66.5888 42.512L79.0992 31.2688C80.4294 30.0845 79.8679 27.9888 78.7494 26.5804Z" fill="#68C266"/>
<path d="M62.9249 18.5683C67.7676 18.5683 71.6933 14.4116 71.6933 9.28413C71.6933 4.15665 67.7676 0 62.9249 0C58.0823 0 54.1566 4.15665 54.1566 9.28413C54.1566 14.4116 58.0823 18.5683 62.9249 18.5683Z" fill="#68C266"/>
</svg>
