<svg width="26" height="158" viewBox="0 0 26 158" fill="none" xmlns="http://www.w3.org/2000/svg">
<path d="M0 65.0729V80.4874C0 82.1194 0.571252 83.6307 1.5132 84.9255C3.10324 83.7456 5.35166 83.7291 6.47073 83.7291C7.27911 83.7291 8.16106 83.7702 9.09314 83.8113C10.0787 83.855 11.1209 83.9015 12.2099 83.9015H13.2587C14.3445 83.9015 15.39 83.8523 16.3755 83.8113C17.3076 83.7675 18.1896 83.7291 18.9979 83.7291C20.1203 83.7291 22.3654 83.7456 23.9555 84.9255C24.8974 83.6304 25.4687 82.1217 25.4687 80.4874V0.00071558C3.75834 -0.240115 0 60.3856 0 65.0729Z" fill="#E7E750"/>
<path d="M18.9979 86.4671C18.243 86.4671 17.4243 86.5055 16.5592 86.5439C15.517 86.5931 14.4078 86.6399 13.262 86.6399H12.2095C11.0605 86.6399 9.95125 86.5907 8.91231 86.5439C8.04393 86.5028 7.22528 86.4671 6.47362 86.4671C5.04714 86.4671 4.18204 86.5766 3.67737 87.0091C3.25324 87.3732 3.0827 87.962 3.0827 88.9421V149.852C3.0827 154.14 7.17843 157.631 12.2091 157.631H13.2579C18.2923 157.631 22.3843 154.143 22.3843 149.852V88.9421C22.3843 87.962 22.2105 87.3732 21.7897 87.0091C21.2895 86.5766 20.4277 86.4671 18.9979 86.4671Z" fill="#E7E750"/>
</svg>
