<svg width="47" height="155" viewBox="0 0 47 155" fill="none" xmlns="http://www.w3.org/2000/svg">
<path d="M35.5596 0.301952L34.8178 29.1815C34.8178 30.3203 33.8758 31.7936 32.1054 31.7936H31.1564C29.386 31.7936 28.444 30.1754 28.444 29.0063L25.6112 0.0745942C24.8862 0.0772888 24.1449 0.0772886 23.3698 0.0772886C22.0168 0.0772886 20.7506 0.0718994 19.5514 0.0718994L16.7186 29.4031C16.7285 30.4628 15.7832 31.7932 14.0128 31.7932H13.0638C11.2934 31.7932 10.3514 30.1751 10.3514 29.006L9.61662 0.416473C0.219367 1.62939 0.222656 7.03411 0.222656 30.709C0.222656 38.6955 4.09441 45.6499 11.0094 49.387C11.9546 49.899 12.9537 50.3507 14.0128 50.7367C15.0616 51.1173 16.1708 51.4238 17.3268 51.6677L14.15 151.224C14.15 153.302 19.5486 154.999 22.0838 154.999H26.2597C28.7954 154.999 34.1935 153.307 34.1935 151.229L31.0064 51.3005C32.1723 50.9748 33.2647 50.5558 34.3102 50.0849C35.5966 49.5073 36.7855 48.8255 37.8811 48.0505C43.4399 44.116 46.5202 37.8244 46.5202 30.7113C46.5202 6.15566 45.9419 1.25753 35.5596 0.301952Z" fill="#E7E750"/>
</svg>
